<?xml version="1.0" encoding="UTF-8"?>
<svg width="155px" height="33px" viewBox="0 0 155 33" version="1.1" xmlns="http://www.w3.org/2000/svg" xmlns:xlink="http://www.w3.org/1999/xlink">
    <!-- Generator: Sketch 52.3 (67297) - http://www.bohemiancoding.com/sketch -->
    <title>Artboard</title>
    <desc>Created with Sketch.</desc>
    <g id="Artboard" stroke="none" stroke-width="1" fill="none" fill-rule="evenodd">
        <g id="Group-Copy-4" transform="translate(1.000000, 1.000000)" fill="#FFFFFF">
            <path d="M134.935316,7.33126692 C134.935316,7.33126692 137.563261,6.89167293 137.683224,12.1236805 L131.804322,12.4222594 C131.857509,11.200906 132.239189,7.33126692 134.935316,7.33126692 Z M142.507527,13.833109 C142.507527,9.23112406 139.342325,6.1548985 135.437662,6.1548985 C130.505111,6.1548985 126.506492,10.132688 126.506492,15.0395451 L126.506492,15.7744549 C126.506492,20.2167782 130.126711,23.8181391 134.59253,23.8181391 L134.888689,23.8181391 C136.863866,23.8181391 138.857083,23.0676128 140.351,21.8408985 L140.113417,20.2759812 C139.362944,20.7698835 138.468843,21.0717256 137.40042,21.0717256 C131.360083,21.0717256 131.693262,13.8480263 131.693262,13.8480263 L142.507527,13.833109 Z" id="Fill-1"></path>
            <polygon id="Fill-3" points="152.912816 24.2156617 142.882295 17.5175639 144.500627 24.2156617 142.882295 30.9142256"></polygon>
            <path d="M42.9799962,8.70838947 L42.9799962,6.20484812 L36.0300942,7.68049474 L37.8318859,9.47429925 L37.8318859,21.1673594 L35.5511784,23.4354872 L37.8318859,23.4354872 L42.9799962,23.4354872 L45.266327,23.4354872 L42.9799962,21.1673594 L42.9799962,10.3872842 C42.9799962,10.3872842 43.329108,9.15031429 45.4315107,9.15031429 C47.5336792,9.15031429 48.9844847,11.6832241 48.9844847,11.6832241 L50.05033,6.35215639 C50.05033,6.35215639 45.9938384,5.14455489 42.9799962,8.70838947" id="Fill-5"></path>
            <path d="M79.5663028,21.0716556 C73.5264345,21.0716556 73.8596136,13.8481895 73.8596136,13.8481895 C73.8596136,13.8481895 73.6480378,7.33143008 77.8523747,7.33143008 C78.2527989,7.31697895 78.6703273,7.37431729 79.1049597,7.50437744 L82.8158541,11.2141218 L83.4482384,7.32210677 C83.4482384,7.32210677 81.4116749,6.15506165 77.603779,6.15506165 C72.6712277,6.15506165 68.6728433,10.1328511 68.6728433,15.0394752 L68.6728433,15.774385 C68.6728433,20.2169414 72.2930623,23.8183023 76.7586473,23.8183023 L77.0550409,23.8183023 C80.1251159,23.8183023 83.2453319,22.0119113 84.4519934,19.4093098 L83.6398985,19.0074752 C82.6879245,20.2120466 81.3751236,21.0716556 79.5663028,21.0716556" id="Fill-7"></path>
            <path d="M96.8878006,19.8831436 C96.6382677,20.2970985 95.9536337,20.9979782 94.9697945,20.9979782 C93.6335632,20.9979782 92.8193596,20.256309 92.8193596,18.4179857 L92.8193596,8.50567744 L96.6094484,8.50567744 L96.8079032,7.6651812 L96.8074346,7.6651812 L96.9332554,7.13468496 L92.8193596,7.13468496 L92.8193596,2.07888797 L87.6967884,3.16831654 L87.6967884,7.13468496 L85.8443871,7.13468496 L85.5205801,8.50567744 L87.6967884,8.50567744 L87.6967884,18.5191436 C87.6967884,22.2778353 89.5112325,23.8110534 92.6394147,23.8110534 C94.9587822,23.8110534 97.0649338,21.9207526 97.7694836,20.273091 L97.815407,20.166106 L96.9571544,19.7684669 L96.8878006,19.8831436 Z" id="Fill-9"></path>
            <path d="M15.1860115,19.1182361 C12.8914801,22.2795368 8.12458116,22.0711609 8.12458116,22.0711609 L8.12270674,22.0711609 L8.12270674,11.4845444 L8.12270674,1.36432632 L8.12458116,1.36432632 C8.12458116,1.36432632 12.8914801,1.15595038 15.1860115,4.31725113 C17.1614219,7.03849173 17.0639518,9.61825113 17.0639518,11.4845444 C17.0639518,13.3508376 17.1614219,16.3969955 15.1860115,19.1182361 M9.68714931,9.32330827e-05 L0.000117151605,9.32330827e-05 L2.68148315,2.67751429 L2.68148315,20.7577398 L0.000117151605,23.435394 L9.68714931,23.435394 C16.5184939,23.435394 22.6473974,20.3426195 22.6473974,12.1495293 L22.6473974,11.2859579 C22.6473974,3.31359699 16.5627772,9.32330827e-05 9.68714931,9.32330827e-05" id="Fill-11"></path>
            <path d="M58.9400752,7.33138346 C58.9400752,7.33138346 61.5682544,6.89178947 61.6879833,12.123797 L55.8090813,12.4223759 C55.8625025,11.2010226 56.2439481,7.33138346 58.9400752,7.33138346 Z M66.5122865,13.8332256 C66.5122865,9.2312406 63.3470844,6.15524812 59.4426556,6.15524812 C54.5101043,6.15524812 50.5114856,10.1328045 50.5114856,15.0394286 L50.5114856,15.7745714 C50.5114856,20.2168947 54.1317046,23.8182556 58.5972896,23.8182556 L58.8936832,23.8182556 C61.9635239,23.8182556 65.0839741,22.0118647 66.2904014,19.4094962 L65.4783064,19.0074286 C64.5268011,20.212 63.2135315,21.0718421 61.404945,21.0718421 C55.3648424,21.0718421 55.6980216,13.8481429 55.6980216,13.8481429 L66.5122865,13.8332256 Z" id="Fill-13"></path>
            <polygon id="Fill-15" points="116.372503 8.85565113 118.587606 6.64672632 108.461958 6.64672632 110.687604 8.85565113 116.846264 23.4354406 118.38587 23.4354406 120.242958 18.9532602 116.381406 8.8789594"></polygon>
            <polygon id="Fill-17" points="120.499121 6.64670301 123.730631 9.86161278 126.96261 6.64670301"></polygon>
            <polygon id="Fill-19" points="31.9277026 6.20489474 24.9759262 7.68077444 26.7795923 9.47434586 26.7795923 21.167406 24.5042738 23.4353008 26.7795923 23.4353008 31.9277026 23.4353008 34.2081758 23.4353008 31.9277026 21.167406"></polygon>
            <polygon id="Fill-21" points="106.569748 6.20489474 99.6177377 7.68077444 101.421404 9.47434586 101.421404 21.167406 99.1460853 23.4353008 101.421404 23.4353008 106.569748 23.4353008 108.849987 23.4353008 106.569748 21.167406"></polygon>
        </g>
    </g>
</svg>